<?xml version="1.0" encoding="UTF-8"?>
<svg width="203px" height="145px" viewBox="0 0 203 145" version="1.1" xmlns="http://www.w3.org/2000/svg" xmlns:xlink="http://www.w3.org/1999/xlink">
    <title>空白页_画板 1</title>
    <defs>
        <linearGradient x1="49.9271857%" y1="99.3051948%" x2="50.0728143%" y2="1.40909091%" id="linearGradient-1">
            <stop stop-color="#FFFFFF" stop-opacity="0" offset="0%"></stop>
            <stop stop-color="#F5FBF7" stop-opacity="0.16" offset="18%"></stop>
            <stop stop-color="#DAF0E3" stop-opacity="0.56" offset="58%"></stop>
            <stop stop-color="#BDE5CD" offset="100%"></stop>
        </linearGradient>
        <linearGradient x1="49.9158392%" y1="0.694805195%" x2="50.0847091%" y2="98.5844156%" id="linearGradient-2">
            <stop stop-color="#FFFFFF" stop-opacity="0" offset="0%"></stop>
            <stop stop-color="#F5FBF7" stop-opacity="0.16" offset="18%"></stop>
            <stop stop-color="#DAF0E3" stop-opacity="0.56" offset="58%"></stop>
            <stop stop-color="#BDE5CD" offset="100%"></stop>
        </linearGradient>
        <linearGradient x1="49.9989034%" y1="0.694805195%" x2="50.1707889%" y2="98.5844156%" id="linearGradient-3">
            <stop stop-color="#FFFFFF" stop-opacity="0" offset="0%"></stop>
            <stop stop-color="#F5FBF7" stop-opacity="0.16" offset="18%"></stop>
            <stop stop-color="#DAF0E3" stop-opacity="0.56" offset="58%"></stop>
            <stop stop-color="#BDE5CD" offset="100%"></stop>
        </linearGradient>
        <linearGradient x1="49.9230619%" y1="99.3070175%" x2="50.0769381%" y2="1.4122807%" id="linearGradient-4">
            <stop stop-color="#FFFFFF" stop-opacity="0" offset="0%"></stop>
            <stop stop-color="#F7FBF7" stop-opacity="0.16" offset="18%"></stop>
            <stop stop-color="#E2F0E3" stop-opacity="0.56" offset="58%"></stop>
            <stop stop-color="#CBE5CD" offset="100%"></stop>
        </linearGradient>
        <linearGradient x1="50.6217853%" y1="55.5207608%" x2="52.9005795%" y2="36.0276674%" id="linearGradient-5">
            <stop stop-color="#D7F4E3" offset="0%"></stop>
            <stop stop-color="#BDE5CD" offset="100%"></stop>
        </linearGradient>
        <linearGradient x1="50.3021896%" y1="55.2386553%" x2="49.7275339%" y2="45.4278153%" id="linearGradient-6">
            <stop stop-color="#92D3AF" offset="0%"></stop>
            <stop stop-color="#B6E2C8" offset="84%"></stop>
            <stop stop-color="#BDE5CD" offset="100%"></stop>
        </linearGradient>
        <linearGradient x1="50.5737879%" y1="94.6251952%" x2="49.7744093%" y2="11.4263404%" id="linearGradient-7">
            <stop stop-color="#92D3AF" offset="0%"></stop>
            <stop stop-color="#B6E2C8" offset="84%"></stop>
            <stop stop-color="#BDE5CD" offset="100%"></stop>
        </linearGradient>
        <linearGradient x1="49.425783%" y1="94.6991404%" x2="50.2268649%" y2="11.4352696%" id="linearGradient-8">
            <stop stop-color="#92D3AF" offset="0%"></stop>
            <stop stop-color="#B6E2C8" offset="84%"></stop>
            <stop stop-color="#BDE5CD" offset="100%"></stop>
        </linearGradient>
        <linearGradient x1="50.3797896%" y1="58.925549%" x2="49.6652225%" y2="42.2097403%" id="linearGradient-9">
            <stop stop-color="#7DC69B" offset="0%"></stop>
            <stop stop-color="#A1D7B7" offset="58%"></stop>
            <stop stop-color="#BDE5CD" offset="100%"></stop>
        </linearGradient>
        <linearGradient x1="48.9923225%" y1="71.0652591%" x2="53.5988484%" y2="-15.3550864%" id="linearGradient-10">
            <stop stop-color="#92D3AF" offset="0%"></stop>
            <stop stop-color="#B6E2C8" offset="84%"></stop>
            <stop stop-color="#BDE5CD" offset="100%"></stop>
        </linearGradient>
        <linearGradient x1="48.9534099%" y1="71.042862%" x2="53.5786631%" y2="-15.356058%" id="linearGradient-11">
            <stop stop-color="#92D3AF" offset="0%"></stop>
            <stop stop-color="#B6E2C8" offset="84%"></stop>
            <stop stop-color="#BDE5CD" offset="100%"></stop>
        </linearGradient>
    </defs>
    <g id="页面-1" stroke="none" stroke-width="1" fill="none" fill-rule="evenodd">
        <g id="我的-我的预约-空白" transform="translate(-86.000000, -166.000000)" fill-rule="nonzero">
            <g id="空白页_画板-1" transform="translate(86.000000, 166.000000)">
                <rect id="矩形" fill="url(#linearGradient-1)" x="169" y="9" width="34" height="84"></rect>
                <rect id="矩形" fill="#FFFFFF" x="175" y="17" width="9" height="6"></rect>
                <rect id="矩形" fill="#FFFFFF" x="187" y="17" width="9" height="6"></rect>
                <rect id="矩形" fill="#FFFFFF" x="175" y="23" width="9" height="6"></rect>
                <rect id="矩形" fill="#FFFFFF" x="187" y="23" width="9" height="6"></rect>
                <rect id="矩形" fill="url(#linearGradient-1)" x="145" y="47" width="34" height="84"></rect>
                <rect id="矩形" fill="#FFFFFF" x="165" y="55" width="8" height="13"></rect>
                <rect id="矩形" fill="#FFFFFF" x="165" y="74" width="8" height="13"></rect>
                <rect id="矩形" fill="url(#linearGradient-2)" transform="translate(57.000000, 42.000000) rotate(180.000000) translate(-57.000000, -42.000000) " x="39" y="0" width="36" height="84"></rect>
                <rect id="矩形" fill="#FFFFFF" transform="translate(50.000000, 14.500000) rotate(180.000000) translate(-50.000000, -14.500000) " x="46" y="8" width="8" height="13"></rect>
                <rect id="矩形" fill="#FFFFFF" transform="translate(50.000000, 33.500000) rotate(180.000000) translate(-50.000000, -33.500000) " x="46" y="27" width="8" height="13"></rect>
                <rect id="矩形" fill="url(#linearGradient-3)" transform="translate(18.000000, 75.000000) rotate(180.000000) translate(-18.000000, -75.000000) " x="0" y="33" width="36" height="84"></rect>
                <rect id="矩形" fill="#FFFFFF" transform="translate(11.000000, 47.500000) rotate(180.000000) translate(-11.000000, -47.500000) " x="7" y="41" width="8" height="13"></rect>
                <rect id="矩形" fill="#FFFFFF" transform="translate(22.000000, 47.500000) rotate(180.000000) translate(-22.000000, -47.500000) " x="18" y="41" width="8" height="13"></rect>
                <rect id="矩形" fill="url(#linearGradient-4)" x="140" y="83" width="26" height="62"></rect>
                <rect id="矩形" fill="url(#linearGradient-1)" x="55" y="28" width="34" height="84"></rect>
                <rect id="矩形" fill="#FFFFFF" x="75" y="35" width="8" height="13"></rect>
                <rect id="矩形" fill="#FFFFFF" x="75" y="55" width="8" height="13"></rect>
                <polygon id="路径" fill="url(#linearGradient-5)" points="78.6033596 55 63 94 147 94 129.602774 56.7773788"></polygon>
                <rect id="矩形" fill="url(#linearGradient-6)" x="77" y="47" width="54" height="18" rx="1.77"></rect>
                <path d="M76.9945849,47 L56.417034,75.4937533 C55.8100879,76.3222293 55.8714395,77.4690186 56.5632429,78.2267048 L66.3105039,89 L77,65.2779802 L76.9945849,47 Z" id="路径" fill="url(#linearGradient-7)"></path>
                <path d="M130,47 L150.572557,75.4449075 C151.195175,76.3081376 151.131748,77.4932307 150.42061,78.2839281 L140.7177,89 L130,65.2594426 L130,47 Z" id="路径" fill="url(#linearGradient-8)"></path>
                <path d="M150.417375,75 L112.742249,75 C112.837534,75.5008629 112.886366,76.0098783 112.888089,76.5202114 C112.888089,81.0582848 109.306568,84.7371202 104.888539,84.7371202 C100.470509,84.7371202 96.8889889,81.0582848 96.8889889,76.5202114 C96.8889316,76.0100545 96.9359545,75.5010407 97.0294267,75 L57.5772239,75 C56.7061472,75 56,75.7253342 56,76.6200793 L56,115.379921 C56,116.274666 56.7061472,117 57.5772239,117 L150.417375,117 C151.289329,117 151.997024,116.275563 152,115.379921 L152,76.6200793 C151.997024,75.7244375 151.289329,75 150.417375,75 Z" id="路径" fill="url(#linearGradient-9)"></path>
                <polygon id="路径" fill="url(#linearGradient-10)" points="37.3258157 93 35.547025 96.9059501 32 98.6794626 35.9059501 100.806622 37.6794626 104 39.8066219 100.452975 43 98.6794626 39.0993282 96.547025"></polygon>
                <polygon id="路径" fill="url(#linearGradient-11)" points="145.740716 17 143.158677 22.6753291 138 25.2564968 143.677245 28.356058 146.259284 33 149.35449 27.8376645 154 25.2564968 148.322755 22.1623355"></polygon>
                <ellipse id="椭圆形" fill="#DCF7E5" cx="105" cy="133" rx="40" ry="6"></ellipse>
            </g>
        </g>
    </g>
</svg>