<?xml version="1.0" encoding="UTF-8"?>
<svg width="64px" height="49px" viewBox="0 0 64 49" version="1.1" xmlns="http://www.w3.org/2000/svg" xmlns:xlink="http://www.w3.org/1999/xlink">
    <title>已过期</title>
    <defs>
        <filter id="filter-1">
            <feColorMatrix in="SourceGraphic" type="matrix" values="0 0 0 0 1.000000 0 0 0 0 1.000000 0 0 0 0 1.000000 0 0 0 1.000000 0"></feColorMatrix>
        </filter>
    </defs>
    <g id="页面-1" stroke="none" stroke-width="1" fill="none" fill-rule="evenodd">
        <g id="已过期" transform="translate(-271.000000, -104.000000)" filter="url(#filter-1)">
            <g transform="translate(271.000000, 104.000000)">
                <rect id="矩形" fill="#000000" fill-rule="nonzero" opacity="0" x="0" y="1" width="64" height="47"></rect>
                <path d="M32.06875,10.06875 C36.825,10.06875 41.04375,12.36875 43.675,15.925 L45.51875,16.41875 C42.775,11.8625 37.775,8.8125 32.06875,8.8125 C29.3125,8.8125 26.71875,9.525 24.4625,10.76875 L26.3,11.2625 C28.075,10.49375 30.025,10.06875 32.06875,10.06875 Z M41.55,9.25 L42.55625,10.0625 L42.86875,8.8375 L44,8.175 L42.86875,7.5125 L42.55625,6.2875 L41.55,7.1 L40.23125,7 L40.7375,8.1625 L40.23125,9.325 L41.55,9.25 Z M24.0625,6.5125 L23.025,5.79375 L22.79375,7.075 L21.73125,7.86875 L22.875,8.41875 L23.25625,9.63125 L24.19375,8.6875 L25.49375,8.65 L24.93125,7.51875 L25.35625,6.28125 L24.0625,6.5125 Z M33.775,4.75 L33.00625,3.75 L32.4,4.9 L31.15,5.33125 L32.06875,6.2 L32.0625,7.46875 L33.2375,6.85625 L34.4875,7.20625 L34.29375,5.9625 L35.06875,4.9125 L33.775,4.75 Z M47.825,12.625 L46.7375,11.875 L46.58125,13.13125 L45.5625,13.88125 L46.74375,14.46875 L47.2,15.6875 L48.0875,14.79375 L49.39375,14.8 L48.75625,13.65625 L49.10625,12.44375 L47.825,12.625 Z M61.9625,22.11875 L7.375,7.49375 C6.0375,7.1375 4.65625,7.93125 4.3,9.26875 L0.4,23.825 C0.04375,25.1625 0.8375,26.54375 2.175,26.9 L56.7625,41.525 C58.1,41.88125 59.48125,41.0875 59.8375,39.75 L63.7375,25.19375 C64.1,23.85625 63.30625,22.475 61.9625,22.11875 Z M62.3625,25.48125 L58.7875,38.825 C58.51875,39.825 57.48125,40.425 56.48125,40.15625 L3.1125,25.85 C2.1125,25.58125 1.5125,24.54375 1.78125,23.54375 L5.35625,10.2 C5.625,9.2 6.6625,8.6 7.6625,8.86875 L61.0375,23.175 C62.0375,23.4375 62.63125,24.46875 62.3625,25.48125 Z M32.06875,1.9 C42.53125,1.9 51.33125,9.00625 53.9125,18.65625 L55.30625,19.025 C52.825,8.49375 43.3625,0.65 32.075,0.65 C25.225,0.65 19.05625,3.5375 14.7,8.15 L16.0875,8.51875 C20.175,4.43125 25.825,1.9 32.06875,1.9 Z M37.83125,37.75625 C36.06875,38.525 34.11875,38.95625 32.06875,38.95625 C27.3125,38.95625 23.09375,36.65625 20.4625,33.1 L18.61875,32.60625 C21.3625,37.1625 26.3625,40.2125 32.06875,40.2125 C34.825,40.2125 37.41875,39.5 39.675,38.25625 L37.83125,37.75625 Z M24.3625,40.3625 L23.3625,39.55 L23.05,40.775 L21.93125,41.4375 L23.05,42.1 L23.3625,43.325 L24.3625,42.5125 L25.675,42.60625 L25.16875,41.44375 L25.675,40.28125 L24.3625,40.3625 Z M32.0625,44.23125 L32.825,45.23125 L33.425,44.0875 L34.66875,43.65625 L33.75625,42.78125 L33.7625,41.51875 L32.6,42.13125 L31.3625,41.78125 L31.55625,43.025 L30.78125,44.075 L32.0625,44.23125 Z M16.19375,36.3375 L17.21875,37.1625 L17.4625,35.91875 L18.53125,35.24375 L17.4,34.575 L17.0375,33.3375 L16.09375,34.16875 L14.8,34.075 L15.35,35.25 L14.9125,36.43125 L16.19375,36.3375 Z M32.06875,47.11875 C21.60625,47.11875 12.80625,40.0125 10.225,30.3625 L8.83125,29.99375 C11.3125,40.525 20.775,48.36875 32.0625,48.36875 C38.9125,48.36875 45.08125,45.48125 49.4375,40.86875 L48.05,40.5 C43.96875,44.5875 38.3125,47.11875 32.06875,47.11875 Z M41.15,42.50625 L42.18125,43.225 L42.40625,41.95625 L43.45625,41.16875 L42.31875,40.61875 L41.9375,39.40625 L41.01875,40.34375 L39.73125,40.38125 L40.29375,41.50625 L39.88125,42.74375 L41.15,42.50625 Z M21.51875,23.16875 C22.2,23.7125 22.81875,24.14375 23.3625,24.46875 C23.28125,24.68125 23.15,24.925 22.9875,25.25625 C22.6625,25.88125 22.3875,26.36875 22.2,26.6875 C21.70625,27.6625 20.625,27.93125 18.975,27.5 L13.28125,26.00625 C11.4125,25.51875 10.70625,24.325 11.19375,22.45625 L12.6625,16.81875 L14.5875,17.3375 L14.2625,18.60625 L20.6625,20.2875 L21.39375,17.525 L12.71875,15.275 L13.2125,13.45625 L23.79375,16.23125 L22.1125,22.63125 L13.7875,20.4625 L13.1625,22.84375 C12.91875,23.7375 13.24375,24.275 14.08125,24.5 L18.9875,25.76875 C19.88125,25.95625 20.41875,25.79375 20.64375,25.25 C20.75,25.00625 20.9125,24.56875 21.1625,23.98125 C21.33125,23.60625 21.4375,23.33125 21.51875,23.16875 Z M29.95,28.91875 C30.63125,29.13125 32.525,29.625 35.5875,30.325 C36.35,30.5125 36.9375,30.675 37.35,30.78125 C36.89375,31.38125 36.5375,31.8625 36.31875,32.275 C33.525,31.54375 31.09375,30.86875 29,30.24375 C27.675,29.89375 26.80625,29.26875 26.425,28.4 C25.53125,28.83125 24.875,29.2125 24.475,29.5375 L24.23125,27.34375 C24.41875,27.2375 24.6875,27.1 25.04375,26.96875 C25.39375,26.78125 25.66875,26.675 25.85625,26.59375 L26.80625,23.0125 L25.5875,22.6875 L26.04375,20.925 L29.08125,21.7125 L27.675,27.05 C28.025,27.99375 28.8125,28.61875 29.95,28.91875 Z M27.29375,17.425 L29,16.9375 C29.40625,17.99375 29.70625,18.94375 29.975,19.78125 C29.91875,19.80625 29.6,19.91875 28.94375,20.10625 C28.56875,20.2125 28.2625,20.29375 28.05,20.35 C27.9125,19.83125 27.725,19.10625 27.50625,18.15625 C27.4,17.8375 27.31875,17.59375 27.29375,17.425 Z M29.9,22.58125 L31.6375,21.85 C31.90625,22.3375 32.36875,23.36875 33.06875,24.9375 C32.525,23.69375 32.55,23.8 33.15,25.2625 C33.0125,25.31875 32.85625,25.36875 32.63125,25.475 C32.44375,25.55625 32.00625,25.71875 31.30625,26.01875 C31.2,25.80625 31.0625,25.44375 30.875,24.9625 C30.7125,24.58125 30.41875,23.76875 29.9,22.58125 Z M35.5875,21.00625 L36.1625,18.86875 L38.0875,19.3875 L37.5125,21.525 L39.38125,22.01875 L38.975,23.61875 L37.10625,23.13125 L35.96875,27.49375 C35.59375,28.9625 34.725,29.55 33.3625,29.28125 C32.6,29.11875 31.73125,28.93125 30.75625,28.65625 C30.78125,28.575 30.78125,28.49375 30.78125,28.3625 C30.8625,27.95625 30.8625,27.3875 30.80625,26.65625 C31.05,26.7125 31.40625,26.84375 31.8375,26.98125 C32.35625,27.11875 32.70625,27.225 32.86875,27.30625 C33.51875,27.46875 33.95,27.2 34.1375,26.4625 L35.1375,22.6125 L29.98125,21.25 L30.3875,19.65 L35.5875,21.00625 Z M48.4375,23.35625 L48.03125,24.90625 L47.325,24.71875 L45.85625,30.30625 L46.5625,30.49375 L46.15625,32.09375 L44.175,31.575 C44.58125,32.15 44.9375,32.76875 45.23125,33.39375 C46.125,32.7125 46.8625,31.2 47.48125,28.8375 L49.05625,22.825 L53.9625,24.09375 L51.14375,34.85 C50.93125,35.6625 50.4125,35.9875 49.56875,35.85 C49.1125,35.76875 48.5375,35.6375 47.83125,35.475 C47.83125,35.3125 47.83125,35.1 47.83125,34.76875 C47.8875,34.3125 47.8875,33.95625 47.85625,33.7125 C48.2875,33.875 48.64375,33.98125 48.9375,34.0625 C49.34375,34.16875 49.5875,34.00625 49.7,33.60625 L50.13125,31.95 L48.36875,31.49375 C47.825,33.09375 47.06875,34.3375 46.04375,35.2375 C45.9875,35.18125 45.90625,35.1 45.8,34.99375 C45.6375,34.75 45.36875,34.41875 44.9875,34.01875 L43.85,34.475 C43.44375,33.5 43.0375,32.7125 42.65625,32.09375 L44.0375,31.51875 L41.1625,30.75625 L42.08125,31.95 C41.2375,32.46875 40.425,32.98125 39.6125,33.5 C39.45,33.25625 39.2375,32.95625 38.9625,32.58125 C38.8,32.3375 38.66875,32.175 38.6125,32.09375 C39.425,31.71875 40.1625,31.25 40.8625,30.74375 L39.04375,30.25625 L39.45,28.65625 L40.50625,28.925 L41.975,23.3375 L41.08125,23.09375 L41.4875,21.54375 L42.38125,21.7875 L42.675,20.675 L44.275,21.08125 L43.98125,22.19375 L45.9625,22.7125 L46.25625,21.6 L47.9125,22.03125 L47.61875,23.14375 L48.4375,23.35625 Z M42.475,28.40625 L42.23125,29.35625 L44.2125,29.875 L44.45625,28.925 L42.475,28.40625 Z M43.075,26.1 L42.83125,26.99375 L44.8125,27.5125 L45.05625,26.61875 L43.075,26.1 Z M43.69375,23.76875 L43.45,24.6625 L45.43125,25.18125 L45.675,24.2875 L43.69375,23.76875 Z M48.89375,29.975 L50.6,30.40625 L51.03125,28.7 L49.325,28.26875 C49.19375,28.80625 49.0625,29.38125 48.89375,29.975 Z M51.46875,27.15625 L51.9625,25.3375 L50.25625,24.90625 L49.7625,26.725 L51.46875,27.15625 Z" id="形状" fill="#000000" fill-rule="nonzero"></path>
            </g>
        </g>
    </g>
</svg>