<?xml version="1.0" encoding="UTF-8"?>
<svg width="62px" height="62px" viewBox="0 0 62 62" version="1.1" xmlns="http://www.w3.org/2000/svg" xmlns:xlink="http://www.w3.org/1999/xlink">
    <title>编组 3</title>
    <defs>
        <circle id="path-1" cx="30" cy="30" r="30"></circle>
        <polygon id="path-3" points="0 0.183552049 40.1457643 0.183552049 40.1457643 19.2336656 0 19.2336656"></polygon>
    </defs>
    <g id="页面-1" stroke="none" stroke-width="1" fill="none" fill-rule="evenodd">
        <g id="我的" transform="translate(-36.000000, -80.000000)">
            <g id="编组-3" transform="translate(36.000000, 80.000000)">
                <circle id="椭圆形" fill="#FFFFFF" cx="31" cy="31" r="31"></circle>
                <g id="编组备份-2" transform="translate(1.000000, 1.000000)">
                    <mask id="mask-2" fill="white">
                        <use xlink:href="#path-1"></use>
                    </mask>
                    <use id="蒙版" fill="#EAEAEA" xlink:href="#path-1"></use>
                    <g id="编组" mask="url(#mask-2)">
                        <g transform="translate(9.666667, 10.666667)">
                            <path d="M30.5872983,16.3562352 L29.6315331,16.3562352 L29.6315331,22.0913814 L30.5872983,22.0913814 C32.1711167,22.0913814 33.454779,20.8075342 33.454779,19.2237158 C33.454779,17.6398975 32.170192,16.3562352 30.5872983,16.3562352" id="Fill-1" fill="#FCF8F7"></path>
                            <path d="M6.69094839,19.2238638 C6.69094839,20.8074972 7.97461063,22.0913444 9.55842901,22.0913444 L10.5141942,22.0913444 L10.5141942,16.3563832 L9.55842901,16.3563832 C7.97461063,16.3561982 6.69094839,17.6400454 6.69094839,19.2238638" id="Fill-3" fill="#FCF8F7"></path>
                            <polygon id="Fill-5" fill="#FCF8F7" points="26.5822019 36.3805894 25.8078619 36.275359 25.8078619 29.5844476 14.3377545 29.5844476 14.3377545 36.275359 13.5635994 36.3805894 20.0729007 40.0986049"></polygon>
                            <path d="M30.5872983,15.2466007 L30.5872983,20.6949063 C30.5863736,23.3913183 29.89914,26.0418653 28.5895863,28.399099 C26.8709473,31.4912806 23.6104711,33.4087291 20.0729561,33.4078048 C16.5354412,33.4087291 13.274965,31.4912806 11.556326,28.399099 C10.2467723,26.0420503 9.55953865,23.3915032 9.55842901,20.6949063 L9.55842901,9.51145449 L26.7638676,9.51145449 L30.5872983,15.2466007 Z" id="Fill-7" fill="#FCF8F7"></path>
                            <path d="M9.55850299,13.5057505 L9.55850299,10.003189 C9.55942769,8.26956999 10.2466614,6.5655412 11.5562151,5.04996534 C13.274854,3.0618701 16.5353302,1.82925105 20.0730301,1.82980554 C23.6105451,1.82906611 26.8708363,3.0618701 28.5894753,5.04996534 C29.899029,6.56535626 30.5862627,8.26956999 30.5873723,10.003189 L30.5873723,17.1928812 L13.3821187,17.1928812 L9.55850299,13.5057505 Z" id="Fill-9" fill="#FCF8F7"></path>
                            <path d="M14.4177591,15.7499309 C15.195613,15.7499309 15.8262553,16.3803883 15.8262553,17.1582421 C15.8262553,17.9360959 15.195613,18.5665533 14.4177591,18.5665533 C13.6399053,18.5665533 13.009448,17.9360959 13.009448,17.1582421 C13.009448,16.3803883 13.6399053,15.7499309 14.4177591,15.7499309" id="Fill-11" fill="#B7B5B6"></path>
                            <path d="M25.6082941,15.7499309 C26.386148,15.7499309 27.0166053,16.3803883 27.0166053,17.1582421 C27.0166053,17.9360959 26.386148,18.5665533 25.6082941,18.5665533 C24.8304403,18.5665533 24.1999829,17.9360959 24.1999829,17.1582421 C24.1999829,16.3803883 24.8304403,15.7499309 25.6082941,15.7499309" id="Fill-13" fill="#B7B5B6"></path>
                            <path d="M17.2288703,24.157447 C17.3823698,25.4621922 18.5966798,26.4786175 20.0728637,26.4786175 C21.5490475,26.4786175 22.7635425,25.4621922 22.917042,24.157447 L17.2288703,24.157447 Z" id="Fill-15" fill="#B7B5B6"></path>
                            <path d="M20.0729377,8.43978793 C25.1471115,8.43978793 29.3045423,10.9716041 30.5872798,16.3562907 C31.0960473,15.001242 31.5430451,13.5274623 31.5430451,11.9837757 C31.5430451,5.36536047 28.1235213,9.2469546e-05 20.0729377,9.2469546e-05 C11.6927926,9.2469546e-05 8.60264529,5.36536047 8.60264529,11.9837757 C8.60264529,13.5274623 9.04982802,15.001242 9.55841052,16.3564756 C10.7359177,10.8933749 14.9985788,8.43978793 20.0729377,8.43978793" id="Fill-17" fill="#B7B5B6"></path>
                            <g id="编组" stroke-width="1" fill="none" transform="translate(0.000000, 36.158736)">
                                <mask id="mask-4" fill="white">
                                    <use xlink:href="#path-3"></use>
                                </mask>
                                <g id="Clip-20"></g>
                                <path d="M33.5121841,1.13931728 L26.5821464,0.183552049 L20.264627,2.34253101 L13.563544,0.221834441 L6.63369125,1.17759967 C2.85039225,1.68322315 0.0191596899,4.90171816 -7.39756368e-05,8.7192309 L-7.39756368e-05,19.233758 L40.1457643,19.233758 L40.1457643,8.7192309 C40.1457643,4.88821761 37.3099083,1.64697508 33.5121841,1.13931728" id="Fill-19" fill="#C9C9C9" mask="url(#mask-4)"></path>
                            </g>
                        </g>
                    </g>
                </g>
            </g>
        </g>
    </g>
</svg>