<?xml version="1.0" encoding="UTF-8"?>
<svg width="99px" height="76px" viewBox="0 0 99 76" version="1.1" xmlns="http://www.w3.org/2000/svg" xmlns:xlink="http://www.w3.org/1999/xlink">
    <title>形状</title>
    <g id="页面-1" stroke="none" stroke-width="1" fill="none" fill-rule="evenodd" fill-opacity="0.05">
        <g id="我的-我的预约" transform="translate(-264.000000, -344.000000)" fill="#5CBB89" fill-rule="nonzero">
            <g id="-mockplus-dup-|593EB91E-E5DC-49E5-B4FA-57575CA96341|近期预约" transform="translate(12.000000, 277.000000)">
                <g id="近期预约">
                    <g id="形状" transform="translate(-0.000000, 0.000000)">
                        <path d="M346.980753,67.0000123 C353.438377,67.0000123 359.164729,71.125886 361.21973,77.2418454 C363.272022,83.3585233 361.184767,90.0977301 356.029422,94.0000123 C351.026187,85.2480859 343.766031,77.9864614 335,72.9663368 C337.824262,69.205702 342.265525,66.9939912 346.980753,67.0000123 L346.980753,67.0000123 Z M263.755899,67.3360608 C269.557349,66.0873853 275.551998,68.381539 279,73.1699816 C270.380103,78.1737643 263.262401,85.364002 258.380103,94.0000123 C253.510241,90.6140322 251.122232,84.6950181 252.294482,78.9159483 C253.441068,73.1368832 257.946181,68.5867903 263.755788,67.3402127 L263.755899,67.3360608 Z M304.463076,94.0332312 C303.074199,93.8731247 301.681013,94.2967297 300.636429,95.1967423 C299.591844,96.0967549 298.996069,97.3868358 299,98.7401927 L299,127.037804 C299,128.671524 300.364719,130.000012 302.044987,130.000012 L324.118423,130.000012 C325.518415,129.999014 326.850685,129.416889 327.777182,128.401345 C328.703679,127.385802 329.135352,126.034448 328.962669,124.690178 C328.627899,122.287807 326.496539,120.50269 323.991344,120.526453 L308.749697,120.526453 L308.749697,98.8593577 C308.776345,96.4372572 306.94178,94.3719448 304.462963,94.0334481 L304.463076,94.0332312 Z M307.101619,72.0000123 C327.62686,72.0363788 345.953829,84.9194532 353.011682,104.278345 C360.068366,123.617371 354.361553,145.303636 338.698805,158.668217 L346.573854,166.588779 C348.711797,168.733996 348.711797,172.211265 346.573854,174.372659 C345.549865,175.401091 344.158803,175.980268 342.707261,175.982539 C341.25572,175.98481 339.862851,175.409987 338.835647,174.384764 L329.414497,164.926575 C315.283921,172.21643 298.489387,172.180429 284.390216,164.83006 L274.872408,174.384654 C273.847242,175.418462 272.4514,176.000012 270.995212,176.000012 C269.539024,176.000012 268.143182,175.418462 267.118017,174.384654 C264.979904,172.230238 264.979904,168.755301 267.118017,166.600885 L275.146201,158.555525 C259.541372,145.117183 253.924124,123.405417 261.054714,104.089168 C268.18886,84.7704446 286.564268,71.9477881 307.101619,72.0000123 Z"></path>
                    </g>
                </g>
            </g>
        </g>
    </g>
</svg>